<svg xmlns="http://www.w3.org/2000/svg" xmlns:xlink="http://www.w3.org/1999/xlink" version="1.1" x="0px" y="0px" viewBox="0 0 70 70" style="enable-background:new 0 0 70 70;" xml:space="preserve"><g><path d="M54.7548828,14.420166H15.2451191c-2.6191406,0-4.75,2.1308594-4.75,4.75v22.1796875c0,2.6191406,2.1308594,4.75,4.75,4.75   h25.6069317l4.5527344,9.0664063c0.1274414,0.253418,0.3867188,0.4135742,0.6704102,0.4135742   s0.5429688-0.1601563,0.6704102-0.4135742l4.5522461-9.0664063h3.4570313c2.6191406,0,4.75-2.1308594,4.75-4.75V19.170166   C59.5048828,16.5510254,57.3740234,14.420166,54.7548828,14.420166z M58.0048828,41.3498535c0,1.7919922-1.4580078,3.25-3.25,3.25   h-3.9199219c-0.2836914,0-0.5429688,0.1601563-0.6704102,0.4135742l-4.0893555,8.1450195l-4.0898438-8.1450195   c-0.1274414-0.253418-0.3867188-0.4135742-0.6704102-0.4135742H15.2451191c-1.7919922,0-3.25-1.4580078-3.25-3.25V19.170166   c0-1.7919922,1.4580078-3.25,3.25-3.25h39.5097656c1.7919922,0,3.25,1.4580078,3.25,3.25V41.3498535z"></path><path d="M29.0693378,32.611084l3.5590801-3.4692383c0.2045898-0.1992188,0.2783203-0.4975586,0.1899414-0.769043   s-0.3232422-0.4692383-0.6054688-0.5102539l-4.9184551-0.7148438l-2.2001953-4.4570313   c-0.2519531-0.5117188-1.0927734-0.5117188-1.3447266,0l-2.199707,4.4570313l-4.918457,0.7148438   c-0.2822266,0.0410156-0.5170898,0.2387695-0.6054688,0.5102539c-0.0878906,0.2714844-0.0146484,0.5698242,0.1899414,0.769043   l3.559082,3.4692383l-0.840332,4.8984375c-0.0483398,0.2817383,0.0673828,0.565918,0.2983398,0.7338867   c0.2314453,0.1679688,0.5375977,0.1894531,0.7900391,0.0571289l4.3989258-2.3129883l4.3994141,2.3129883   c0.1098633,0.0576172,0.2294922,0.0859375,0.3491211,0.0859375c0.1552734,0,0.3100586-0.0483398,0.440918-0.1430664   c0.230957-0.1679688,0.3466797-0.4521484,0.2983398-0.7338867L29.0693378,32.611084z M28.1743183,36.2653809l-3.4033203-1.7890625   c-0.109375-0.0571289-0.2290039-0.0859375-0.3491211-0.0859375c-0.1196289,0-0.2397461,0.0288086-0.3491211,0.0859375   l-3.402832,1.7890625l0.6499023-3.7890625c0.0415039-0.2436523-0.0390625-0.4916992-0.2158203-0.6640625l-2.7529297-2.684082   l3.8046875-0.5527344c0.2441406-0.0356445,0.4555664-0.1889648,0.5644531-0.4101563l1.7016602-3.4477539l1.7021484,3.4477539   c0.1088867,0.2211914,0.3203125,0.3745117,0.5644531,0.4101563l3.8046875,0.5527344l-2.7529297,2.684082   c-0.1767578,0.1723633-0.2573242,0.4204102-0.2158203,0.6640625L28.1743183,36.2653809z"></path><path d="M52.574707,22.2727051H33.1049805c-0.4140625,0-0.75,0.3359375-0.75,0.75s0.3359375,0.75,0.75,0.75H52.574707   c0.4140625,0,0.75-0.3359375,0.75-0.75S52.9887695,22.2727051,52.574707,22.2727051z"></path><path d="M52.574707,27.2727051H36.1049805c-0.4140625,0-0.75,0.3359375-0.75,0.75s0.3359375,0.75,0.75,0.75H52.574707   c0.4140625,0,0.75-0.3359375,0.75-0.75S52.9887695,27.2727051,52.574707,27.2727051z"></path><path d="M52.574707,32.2727051H36.1049805c-0.4140625,0-0.75,0.3359375-0.75,0.75s0.3359375,0.75,0.75,0.75H52.574707   c0.4140625,0,0.75-0.3359375,0.75-0.75S52.9887695,32.2727051,52.574707,32.2727051z"></path><path d="M52.574707,37.2727051H33.1049805c-0.4140625,0-0.75,0.3359375-0.75,0.75s0.3359375,0.75,0.75,0.75H52.574707   c0.4140625,0,0.75-0.3359375,0.75-0.75S52.9887695,37.2727051,52.574707,37.2727051z"></path></g></svg>